<?xml version="1.0" standalone="no"?>
<!DOCTYPE svg PUBLIC "-//W3C//DTD SVG 20010904//EN"
 "http://www.w3.org/TR/2001/REC-SVG-20010904/DTD/svg10.dtd">
<svg version="1.0" xmlns="http://www.w3.org/2000/svg"
 width="400.000000pt" height="400.000000pt" viewBox="0 0 400.000000 400.000000"
 preserveAspectRatio="xMidYMid meet">
<metadata>
Created by potrace 1.11, written by Peter Selinger 2001-2013
</metadata>
<g transform="translate(0.000000,400.000000) scale(0.100000,-0.100000)"
fill="#000000" stroke="none">
<path d="M3953 3655 c-6 -7 -9 -17 -5 -21 4 -5 -1 -3 -10 4 -14 11 -18 10 -26
-5 -6 -10 -13 -17 -16 -15 -12 5 -56 -10 -56 -20 0 -5 -4 -7 -9 -3 -5 3 -12 1
-16 -4 -7 -12 -64 -41 -80 -41 -6 0 -20 -7 -31 -16 -10 -8 -13 -12 -5 -8 9 5
12 3 7 -4 -4 -7 -16 -12 -26 -12 -10 0 -21 -6 -23 -12 -4 -10 -6 -10 -6 0 -1
10 -4 10 -15 0 -8 -7 -11 -17 -8 -23 3 -5 -1 -4 -10 3 -14 11 -18 10 -26 -3
-5 -9 -11 -16 -13 -15 -11 4 -59 -13 -59 -22 0 -5 -4 -7 -9 -3 -5 3 -12 1 -16
-4 -7 -12 -64 -41 -80 -41 -6 0 -20 -7 -31 -16 -10 -8 -13 -12 -5 -8 9 5 12 3
7 -4 -4 -7 -16 -12 -26 -12 -10 0 -21 -6 -23 -12 -4 -10 -6 -10 -6 0 -1 10 -4
10 -15 0 -8 -7 -11 -17 -8 -23 3 -5 -1 -4 -10 3 -14 11 -18 10 -26 -5 -6 -10
-14 -17 -19 -16 -15 4 -53 -9 -53 -19 0 -5 -4 -7 -9 -4 -5 3 -15 -1 -22 -10
-11 -13 -11 -15 2 -14 7 1 29 2 47 1 l32 -1 0 -1010 0 -1010 -240 0 -240 0 0
-240 0 -240 -1010 0 -1010 0 -1 643 c-1 353 -1 645 0 649 1 11 -30 2 -38 -11
-5 -7 -11 -12 -15 -12 -16 3 -56 -12 -56 -21 0 -5 -4 -7 -9 -3 -5 3 -12 1 -16
-4 -7 -12 -64 -41 -80 -41 -6 0 -20 -7 -31 -16 -10 -8 -13 -12 -5 -8 9 5 12 3
7 -4 -4 -7 -16 -12 -26 -12 -10 0 -21 -6 -23 -12 -4 -10 -6 -10 -6 0 -1 10 -4
10 -15 0 -8 -7 -11 -17 -8 -23 3 -5 -1 -4 -10 3 -14 11 -18 11 -25 -2 -4 -8
-11 -15 -16 -15 -25 -2 -57 -15 -57 -23 0 -5 -4 -7 -9 -3 -5 3 -12 1 -16 -4
-7 -12 -64 -41 -80 -41 -6 0 -20 -7 -31 -16 -10 -8 -13 -12 -5 -8 9 5 12 3 7
-4 -4 -7 -16 -12 -26 -12 -10 0 -21 -6 -23 -12 -4 -10 -6 -10 -6 0 -1 10 -4
10 -15 0 -8 -7 -11 -17 -8 -23 3 -5 -1 -4 -10 3 -14 11 -18 11 -25 -2 -4 -8
-10 -15 -13 -14 -3 0 -17 -3 -32 -7 l-28 -7 0 -844 0 -844 2000 0 2000 0 0
1835 c0 1217 -3 1835 -10 1835 -5 0 -10 -6 -10 -12 0 -10 -2 -10 -8 -2 -5 9
-10 8 -19 -1z m-153 -99 c0 -2 -7 -7 -16 -10 -8 -3 -12 -2 -9 4 6 10 25 14 25
6z m-320 -160 c0 -2 -7 -7 -16 -10 -8 -3 -12 -2 -9 4 6 10 25 14 25 6z m-2880
-1440 c0 -2 -7 -7 -16 -10 -8 -3 -12 -2 -9 4 6 10 25 14 25 6z m-320 -160 c0
-2 -7 -7 -16 -10 -8 -3 -12 -2 -9 4 6 10 25 14 25 6z"/>
<path d="M2736 3039 c3 -5 -4 -9 -15 -9 -10 0 -22 -6 -24 -12 -4 -10 -6 -10
-6 0 -1 10 -4 10 -15 0 -8 -7 -11 -17 -8 -23 3 -5 -1 -4 -10 3 -14 11 -18 10
-26 -5 -6 -10 -13 -17 -16 -15 -12 5 -56 -10 -56 -20 0 -5 -4 -7 -9 -3 -5 3
-12 1 -16 -4 -7 -12 -64 -41 -80 -41 -6 0 -20 -7 -31 -16 -10 -8 -13 -12 -5
-8 9 5 12 3 7 -4 -4 -7 -16 -12 -26 -12 -10 0 -21 -6 -23 -12 -4 -10 -6 -10
-6 0 -1 10 -4 10 -15 0 -8 -7 -11 -17 -8 -23 3 -5 -1 -4 -10 3 -14 11 -18 10
-26 -3 -5 -9 -13 -17 -18 -16 -21 1 -54 -12 -54 -21 0 -5 -4 -7 -9 -4 -5 3
-15 -1 -22 -10 -11 -13 -11 -15 2 -14 7 1 137 2 287 1 l272 -1 0 -670 0 -670
140 0 140 0 0 811 0 810 -160 -2 c-87 -1 -157 -6 -154 -10z m-216 -123 c0 -2
-7 -7 -16 -10 -8 -3 -12 -2 -9 4 6 10 25 14 25 6z"/>
<path d="M1765 2553 c-11 -3 -23 -10 -27 -17 -6 -8 -8 -7 -8 2 0 10 -3 10 -14
0 -8 -7 -11 -17 -8 -23 3 -5 -1 -4 -10 3 -14 11 -18 11 -25 -2 -4 -8 -11 -15
-16 -15 -25 -2 -57 -15 -57 -23 0 -5 -4 -7 -9 -3 -5 3 -12 1 -16 -4 -7 -12
-64 -41 -80 -41 -6 0 -20 -7 -31 -16 -10 -8 -12 -13 -4 -9 10 4 9 2 -2 -8 -17
-13 -18 -49 -18 -486 l0 -471 463 -1 c254 0 507 -1 562 -2 l100 -2 3 260 c2
143 0 396 -3 563 l-7 302 -387 -1 c-212 -1 -395 -4 -406 -6z m-205 -117 c0 -2
-7 -7 -16 -10 -8 -3 -12 -2 -9 4 6 10 25 14 25 6z"/>
<path d="M1205 2280 c-3 -5 -14 -10 -24 -10 -9 0 -26 -7 -37 -16 -10 -8 -13
-12 -5 -8 9 5 12 3 7 -4 -4 -7 -16 -12 -26 -12 -10 0 -21 -6 -23 -12 -4 -10
-6 -10 -6 0 -1 10 -4 10 -15 0 -8 -7 -11 -17 -8 -23 3 -5 -1 -4 -10 3 -14 11
-18 10 -26 -5 -6 -10 -14 -17 -19 -16 -4 1 -17 0 -29 -3 -20 -5 -21 -11 -27
-411 -4 -224 -7 -498 -7 -610 l0 -203 810 0 810 0 0 140 0 140 -670 0 -670 0
0 521 c0 413 -3 519 -12 513 -9 -5 -9 -2 1 9 8 10 9 17 3 17 -6 0 -14 -4 -17
-10z"/>
</g>
</svg>
